<svg width="150" height="150" viewBox="0 0 150 150" fill="none" xmlns="http://www.w3.org/2000/svg">
<path d="M75.4324 47.5458L39 26.9791V59.8858L75.4324 79.8649V47.5458Z" fill="#FF6D00"/>
<path d="M110.69 26.9791L75.4324 47.5458V79.8649L110.69 59.8858V26.9791Z" fill="#FF8D33"/>
<path d="M75.4324 7L39 26.9791L75.4324 47.5458L110.69 26.9791L75.4324 7Z" fill="#FF6D00"/>
<path d="M39 75.1639L75.4324 95.7306L110.69 75.1639V59.8858L75.4324 79.8649L39 59.8858V75.1639Z" fill="#224E49"/>
<path d="M58.871 120.831H62.9222L64.9587 123.451L66.9623 125.785L70.7382 130.518H66.2908L63.6928 127.326L62.3607 125.432L58.871 120.831ZM71.0795 117.396C71.0795 119.855 70.6135 121.946 69.6814 123.671C68.7567 125.396 67.4944 126.713 65.8945 127.623C64.3019 128.526 62.5112 128.977 60.5223 128.977C58.5188 128.977 56.7207 128.522 55.1281 127.612C53.5356 126.702 52.2769 125.385 51.3522 123.66C50.4275 121.935 49.9651 119.847 49.9651 117.396C49.9651 114.937 50.4275 112.846 51.3522 111.121C52.2769 109.396 53.5356 108.083 55.1281 107.18C56.7207 106.27 58.5188 105.815 60.5223 105.815C62.5112 105.815 64.3019 106.27 65.8945 107.18C67.4944 108.083 68.7567 109.396 69.6814 111.121C70.6135 112.846 71.0795 114.937 71.0795 117.396ZM66.2467 117.396C66.2467 115.803 66.0082 114.46 65.5312 113.367C65.0615 112.273 64.3973 111.444 63.5386 110.879C62.68 110.314 61.6745 110.031 60.5223 110.031C59.3701 110.031 58.3646 110.314 57.506 110.879C56.6473 111.444 55.9795 112.273 55.5024 113.367C55.0327 114.46 54.7979 115.803 54.7979 117.396C54.7979 118.989 55.0327 120.332 55.5024 121.425C55.9795 122.519 56.6473 123.348 57.506 123.913C58.3646 124.478 59.3701 124.761 60.5223 124.761C61.6745 124.761 62.68 124.478 63.5386 123.913C64.3973 123.348 65.0615 122.519 65.5312 121.425C66.0082 120.332 66.2467 118.989 66.2467 117.396ZM72.7225 110.053V106.123H91.2388V110.053H84.3365V128.669H79.6248V110.053H72.7225Z" fill="#224E49"/>
</svg>
