<svg width="29" height="28" viewBox="0 0 29 28" fill="none" xmlns="http://www.w3.org/2000/svg">
<path d="M0 0H29V13.5849C29 17.3238 27.0054 20.7789 23.7676 22.6485L14.5001 28L5.23246 22.6485C1.99457 20.7789 3.32377e-06 17.3238 3.32377e-06 13.5849L0 0Z" fill="#FFDD2D"/>
<path fill-rule="evenodd" clip-rule="evenodd" d="M8 7V11.5077C8.6164 10.8116 9.73715 10.3406 11.0186 10.3406H12.4111V15.5807C12.4111 16.9748 12.0323 18.3399 11.4703 19.0111H17.5276C16.9668 18.3392 16.5889 16.9758 16.5889 15.5834V10.3406H17.9815C19.2629 10.3406 20.3836 10.8116 21 11.5077V7H8Z" fill="#333333"/>
</svg>
