<svg width="24" height="24" viewBox="0 0 24 24" fill="none" xmlns="http://www.w3.org/2000/svg">
<path d="M9 7H5C4.44772 7 4 7.44772 4 8V17C4 17.5523 4.44772 18 5 18H9C9.55228 18 10 17.5523 10 17V8C10 7.44772 9.55228 7 9 7Z" stroke="currentColor" stroke-width="2"/>
<path d="M19 4H15C14.4477 4 14 4.44772 14 5V17C14 17.5523 14.4477 18 15 18H19C19.5523 18 20 17.5523 20 17V5C20 4.44772 19.5523 4 19 4Z" stroke="currentColor" stroke-width="2"/>
<path d="M2 18H22" stroke="currentColor" stroke-width="2"/>
</svg>
