<svg width="446" height="446" viewBox="0 0 446 446" fill="none" xmlns="http://www.w3.org/2000/svg">
<path fill-rule="evenodd" clip-rule="evenodd" d="M62.3935 1.643C53.7605 3.468 42.2385 8.337 34.6835 13.351C24.9095 19.839 13.8085 32.522 8.57646 43.18C-0.310538 61.282 0.483462 44.697 0.139462 219.5C-0.193538 389.165 -0.423535 381.694 5.59246 396.722C13.0845 415.436 30.4615 432.81 49.1815 440.305C61.5205 445.244 68.3165 446 100.399 446H129.988L132.447 443.347L134.906 440.694L134.65 222.258L134.393 3.823L132.032 1.912C129.819 0.119999 127.785 0.00500073 99.5325 0.0820007C77.0055 0.142001 67.6255 0.537002 62.3935 1.643ZM165.482 3.077L162.893 6.153V98.488V190.822L165.97 193.411C171.909 198.409 172.382 198.118 198.338 173.5C211.385 161.125 222.46 151 222.949 151C223.438 151 234.217 160.855 246.901 172.9C260.072 185.407 271.087 195.083 272.582 195.458C276.085 196.337 280.374 194.435 281.763 191.385C282.577 189.6 282.893 163.202 282.893 97.099V5.292L280.441 2.646L277.988 0H223.03H168.071L165.482 3.077ZM316.629 2.25C311.814 5.907 313.161 13.852 318.937 15.866C321.049 16.602 331.56 17 348.882 17C372.173 17 376.555 17.251 383.284 18.972C404.514 24.402 420.543 39.568 427.175 60.5L429.393 67.5V223.5C429.393 373.354 429.319 379.717 427.52 385C420.522 405.548 405.849 420.45 385.893 427.276L379.393 429.5L274.223 430L169.053 430.5L166.473 432.924C163.137 436.059 163.087 440.285 166.348 443.545L168.802 446H271.89C383.593 446 382.396 446.053 396.172 440.527C415.231 432.883 432.661 415.538 440.194 396.722C446.207 381.7 445.978 389.103 445.666 220C445.345 46.076 446.093 62.034 437.44 44.5C429.6 28.614 418.313 17.322 402.393 9.438C386.823 1.726 382.134 1 347.924 1C325.75 1 317.86 1.315 316.629 2.25ZM119.893 223.584V430.167L92.6435 429.766C67.8605 429.402 64.8705 429.172 59.6185 427.228C39.3775 419.736 25.3235 405.604 18.6175 386L16.3935 379.5L16.1275 225.723C15.8345 55.704 15.4795 65.729 22.2695 52.247C28.5365 39.801 39.5535 29.14 52.4355 23.054C64.0405 17.571 67.0925 17.138 94.6435 17.066L119.893 17V223.584ZM266.893 93.614V170.227L253.763 157.864C227.939 133.548 226.088 132 222.829 132C219.729 132 220.012 131.758 186.643 162.953L178.893 170.198V93.599V17H222.893H266.893V93.614Z" fill="currentColor"/>
</svg>
