<svg xmlns="http://www.w3.org/2000/svg" viewBox="0 0 16 16"><path fill="currentColor" d="M10.089 4.497a1 1 0 0 1 .154-.154l2.55-2.55a1 1 0 0 1 1.414 1.414l-1.845 1.846a53 53 0 0 1 2.346 2.24 1 1 0 0 1 .124 1.262c-1.96 2.94-4.245 4.475-6.832 4.475a6.4 6.4 0 0 1-2.91-.705l-1.883 1.882a1 1 0 1 1-1.414-1.414l2.122-2.122a1 1 0 0 1 .579-.579zM6.613 10.8A4.3 4.3 0 0 0 8 11.029c1.654 0 3.214-.94 4.696-2.916a41 41 0 0 0-1.752-1.644L10 7.414A2 2 0 0 1 7.504 9.91zM3.76 8.574a1 1 0 0 1-1.517 1.303q-.48-.56-1.03-1.26a1 1 0 0 1-.043-1.175C3.13 4.522 5.415 3 8 3q.214 0 .427.014a1 1 0 0 1-.133 1.996A4 4 0 0 0 8 5c-1.676 0-3.253.956-4.75 2.963q.266.327.51.611"></path></svg>