<svg width="244" height="76" viewBox="0 0 244 76" fill="none" xmlns="http://www.w3.org/2000/svg">
<path d="M31 34.5L0 17V45L31 62V34.5Z" fill="#FF6D00"/>
<path d="M61 17L31 34.5V62L61 45V17Z" fill="#FF8D33"/>
<path d="M31 0L0 17L31 34.5L61 17L31 0Z" fill="#FF6D00"/>
<path d="M0 58L31 75.5L61 58V45L31 62L0 45V58Z" fill="#1E8276"/>
<path d="M86.4691 42.1619H90.5202L92.5568 44.782L94.5604 47.1158L98.3363 51.8494H93.8889L91.2908 48.657L89.9588 46.7635L86.4691 42.1619ZM98.6776 38.7273C98.6776 41.1858 98.2115 43.2775 97.2795 45.0021C96.3548 46.7268 95.0924 48.0442 93.4925 48.9542C91.9 49.8569 90.1093 50.3082 88.1204 50.3082C86.1168 50.3082 84.3188 49.8532 82.7262 48.9432C81.1336 48.0331 79.875 46.7158 78.9503 44.9911C78.0256 43.2665 77.5632 41.1785 77.5632 38.7273C77.5632 36.2687 78.0256 34.1771 78.9503 32.4524C79.875 30.7277 81.1336 29.4141 82.7262 28.5114C84.3188 27.6013 86.1168 27.1463 88.1204 27.1463C90.1093 27.1463 91.9 27.6013 93.4925 28.5114C95.0924 29.4141 96.3548 30.7277 97.2795 32.4524C98.2115 34.1771 98.6776 36.2687 98.6776 38.7273ZM93.8448 38.7273C93.8448 37.1347 93.6063 35.7917 93.1293 34.6982C92.6596 33.6046 91.9954 32.7753 91.1367 32.2102C90.2781 31.6451 89.2726 31.3626 88.1204 31.3626C86.9682 31.3626 85.9627 31.6451 85.104 32.2102C84.2454 32.7753 83.5775 33.6046 83.1005 34.6982C82.6308 35.7917 82.396 37.1347 82.396 38.7273C82.396 40.3198 82.6308 41.6629 83.1005 42.7564C83.5775 43.8499 84.2454 44.6792 85.104 45.2443C85.9627 45.8094 86.9682 46.092 88.1204 46.092C89.2726 46.092 90.2781 45.8094 91.1367 45.2443C91.9954 44.6792 92.6596 43.8499 93.1293 42.7564C93.6063 41.6629 93.8448 40.3198 93.8448 38.7273ZM112.964 42.8004V33.0909H117.653V50H113.151V46.9286H112.975C112.593 47.9194 111.958 48.7157 111.07 49.3175C110.19 49.9193 109.115 50.2202 107.845 50.2202C106.715 50.2202 105.72 49.9633 104.862 49.4496C104.003 48.9358 103.331 48.2056 102.847 47.2589C102.37 46.3121 102.128 45.1783 102.12 43.8572V33.0909H106.81V43.0206C106.817 44.0187 107.085 44.8076 107.614 45.3874C108.142 45.9672 108.85 46.2571 109.738 46.2571C110.303 46.2571 110.832 46.1287 111.324 45.8718C111.815 45.6076 112.212 45.2186 112.513 44.7049C112.821 44.1912 112.971 43.5563 112.964 42.8004ZM126.226 50.3192C125.148 50.3192 124.186 50.1321 123.342 49.7578C122.498 49.3762 121.83 48.8147 121.339 48.0735C120.854 47.3249 120.612 46.3929 120.612 45.2773C120.612 44.3379 120.785 43.549 121.129 42.9105C121.474 42.272 121.944 41.7583 122.539 41.3693C123.133 40.9804 123.808 40.6868 124.564 40.4886C125.327 40.2905 126.127 40.151 126.964 40.0703C127.947 39.9676 128.74 39.8722 129.342 39.7841C129.944 39.6887 130.38 39.5492 130.652 39.3658C130.923 39.1823 131.059 38.9107 131.059 38.5511V38.4851C131.059 37.7879 130.839 37.2485 130.399 36.8668C129.966 36.4852 129.349 36.2944 128.549 36.2944C127.705 36.2944 127.034 36.4815 126.535 36.8558C126.036 37.2228 125.705 37.6851 125.544 38.2429L121.206 37.8906C121.427 36.8632 121.86 35.9751 122.506 35.2266C123.151 34.4706 123.984 33.8909 125.004 33.4872C126.032 33.0762 127.221 32.8707 128.571 32.8707C129.511 32.8707 130.41 32.9808 131.268 33.201C132.134 33.4212 132.901 33.7624 133.569 34.2248C134.244 34.6871 134.776 35.2816 135.165 36.0082C135.554 36.7274 135.749 37.5897 135.749 38.5952V50H131.301V47.6552H131.169C130.898 48.1836 130.534 48.6496 130.079 49.0533C129.624 49.4496 129.078 49.7615 128.439 49.989C127.801 50.2092 127.063 50.3192 126.226 50.3192ZM127.569 47.0827C128.259 47.0827 128.868 46.947 129.397 46.6754C129.925 46.3965 130.34 46.0223 130.641 45.5526C130.942 45.0829 131.092 44.5508 131.092 43.9563V42.1619C130.945 42.2573 130.744 42.3454 130.487 42.4261C130.237 42.4995 129.955 42.5692 129.639 42.6353C129.323 42.694 129.008 42.7491 128.692 42.8004C128.377 42.8445 128.09 42.8848 127.834 42.9215C127.283 43.0022 126.802 43.1307 126.392 43.3068C125.981 43.483 125.661 43.7215 125.434 44.0224C125.206 44.3159 125.093 44.6829 125.093 45.1232C125.093 45.7617 125.324 46.2498 125.786 46.5874C126.256 46.9176 126.85 47.0827 127.569 47.0827ZM144.077 40.2244V50H139.387V33.0909H143.857V36.0742H144.055C144.429 35.0908 145.056 34.3129 145.937 33.7404C146.818 33.1606 147.886 32.8707 149.141 32.8707C150.315 32.8707 151.339 33.1276 152.212 33.6413C153.085 34.1551 153.764 34.889 154.249 35.843C154.733 36.7898 154.975 37.92 154.975 39.2337V50H150.286V40.0703C150.293 39.0355 150.029 38.2282 149.493 37.6484C148.957 37.0613 148.22 36.7678 147.28 36.7678C146.649 36.7678 146.091 36.9035 145.607 37.1751C145.13 37.4466 144.756 37.8429 144.484 38.364C144.22 38.8777 144.084 39.4979 144.077 40.2244ZM167.665 33.0909V36.6136H157.482V33.0909H167.665ZM159.794 29.0398H164.484V44.804C164.484 45.237 164.55 45.5746 164.682 45.8168C164.814 46.0516 164.997 46.2167 165.232 46.3121C165.475 46.4076 165.753 46.4553 166.069 46.4553C166.289 46.4553 166.509 46.4369 166.729 46.4002C166.95 46.3562 167.118 46.3232 167.236 46.3011L167.973 49.7908C167.739 49.8642 167.408 49.9486 166.983 50.044C166.557 50.1468 166.04 50.2092 165.43 50.2312C164.3 50.2752 163.31 50.1248 162.458 49.7798C161.614 49.4349 160.957 48.8991 160.488 48.1726C160.018 47.446 159.787 46.5286 159.794 45.4205V29.0398ZM170.72 50V33.0909H175.41V50H170.72ZM173.076 30.9112C172.379 30.9112 171.781 30.68 171.282 30.2177C170.79 29.748 170.544 29.1866 170.544 28.5334C170.544 27.8875 170.79 27.3335 171.282 26.8711C171.781 26.4014 172.379 26.1665 173.076 26.1665C173.773 26.1665 174.368 26.4014 174.859 26.8711C175.358 27.3335 175.608 27.8875 175.608 28.5334C175.608 29.1866 175.358 29.748 174.859 30.2177C174.368 30.68 173.773 30.9112 173.076 30.9112ZM178.396 31.3846V27.4545H196.912V31.3846H190.01V50H185.298V31.3846H178.396ZM199.873 50V33.0909H204.563V50H199.873ZM202.229 30.9112C201.532 30.9112 200.934 30.68 200.435 30.2177C199.943 29.748 199.697 29.1866 199.697 28.5334C199.697 27.8875 199.943 27.3335 200.435 26.8711C200.934 26.4014 201.532 26.1665 202.229 26.1665C202.926 26.1665 203.521 26.4014 204.013 26.8711C204.512 27.3335 204.761 27.8875 204.761 28.5334C204.761 29.1866 204.512 29.748 204.013 30.2177C203.521 30.68 202.926 30.9112 202.229 30.9112ZM213.009 40.2244V50H208.32V33.0909H212.789V36.0742H212.987C213.362 35.0908 213.989 34.3129 214.87 33.7404C215.75 33.1606 216.818 32.8707 218.073 32.8707C219.247 32.8707 220.271 33.1276 221.145 33.6413C222.018 34.1551 222.697 34.889 223.181 35.843C223.666 36.7898 223.908 37.92 223.908 39.2337V50H219.218V40.0703C219.225 39.0355 218.961 38.2282 218.426 37.6484C217.89 37.0613 217.152 36.7678 216.213 36.7678C215.582 36.7678 215.024 36.9035 214.54 37.1751C214.062 37.4466 213.688 37.8429 213.417 38.364C213.152 38.8777 213.017 39.4979 213.009 40.2244ZM231.853 45.1342L231.864 39.5089H232.547L237.963 33.0909H243.346L236.069 41.5895H234.958L231.853 45.1342ZM227.604 50V27.4545H232.294V50H227.604ZM238.172 50L233.196 42.6353L236.323 39.3217L243.665 50H238.172Z" fill="currentColor"/>
</svg>
