<svg width="233" height="91" viewBox="0 0 233 91" fill="none" xmlns="http://www.w3.org/2000/svg">
<circle cx="20.5" cy="20.5" r="20.5" fill="#00D885"/>
<circle cx="212.5" cy="70.5" r="20.5" fill="#FFB864"/>
<path d="M18.6733 37.9531V34.3636H40.0618V37.9531H31.4389V62H27.2827V37.9531H18.6733ZM56.0532 48.5732V52.0682H43.8004V48.5732H56.0532ZM63.6546 62V34.3636H67.6894V44.6328H67.9323C68.1662 44.201 68.5035 43.7017 68.9444 43.1349C69.3852 42.5682 69.9969 42.0734 70.7796 41.6506C71.5623 41.2188 72.5968 41.0028 73.8833 41.0028C75.5566 41.0028 77.0499 41.4257 78.3634 42.2713C79.6768 43.117 80.7069 44.3359 81.4536 45.9283C82.2093 47.5206 82.5871 49.4368 82.5871 51.6768C82.5871 53.9169 82.2138 55.8376 81.4671 57.4389C80.7204 59.0312 79.6948 60.2592 78.3904 61.1229C77.0859 61.9775 75.5971 62.4048 73.9238 62.4048C72.6643 62.4048 71.6342 62.1934 70.8336 61.7706C70.0419 61.3478 69.4212 60.853 68.9713 60.2862C68.5215 59.7195 68.1752 59.2157 67.9323 58.7749H67.5949V62H63.6546ZM67.6084 51.6364C67.6084 53.0937 67.8198 54.3712 68.2426 55.4688C68.6655 56.5663 69.2772 57.4254 70.0779 58.0462C70.8785 58.6579 71.8591 58.9638 73.0196 58.9638C74.2251 58.9638 75.2327 58.6444 76.0424 58.0057C76.852 57.358 77.4638 56.4808 77.8776 55.3743C78.3004 54.2678 78.5118 53.0218 78.5118 51.6364C78.5118 50.2689 78.3049 49.041 77.8911 47.9524C77.4863 46.8639 76.8745 46.0047 76.0559 45.375C75.2462 44.7453 74.2341 44.4304 73.0196 44.4304C71.8501 44.4304 70.8605 44.7318 70.0509 45.3345C69.2502 45.9373 68.643 46.7784 68.2292 47.858C67.8153 48.9375 67.6084 50.197 67.6084 51.6364ZM95.0498 62.4588C93.7363 62.4588 92.5488 62.2159 91.4873 61.7301C90.4257 61.2353 89.5846 60.5201 88.9638 59.5845C88.3521 58.6489 88.0462 57.5019 88.0462 56.1435C88.0462 54.974 88.2711 54.0114 88.7209 53.2557C89.1708 52.5 89.778 51.9018 90.5427 51.4609C91.3074 51.0201 92.162 50.6873 93.1066 50.4624C94.0512 50.2375 95.0138 50.0665 95.9944 49.9496C97.2359 49.8056 98.2434 49.6887 99.0171 49.5987C99.7908 49.4998 100.353 49.3423 100.704 49.1264C101.055 48.9105 101.23 48.5597 101.23 48.0739V47.9794C101.23 46.8009 100.897 45.8878 100.232 45.2401C99.5749 44.5923 98.5943 44.2685 97.2898 44.2685C95.9314 44.2685 94.8609 44.5698 94.0782 45.1726C93.3045 45.7663 92.7692 46.4276 92.4724 47.1562L88.6805 46.2926C89.1303 45.0331 89.787 44.0166 90.6506 43.2429C91.5233 42.4602 92.5263 41.8935 93.6599 41.5426C94.7934 41.1828 95.9854 41.0028 97.2359 41.0028C98.0635 41.0028 98.9406 41.1018 99.8673 41.2997C100.803 41.4886 101.675 41.8395 102.485 42.3523C103.304 42.8651 103.974 43.5982 104.496 44.5518C105.018 45.4964 105.278 46.7244 105.278 48.2358V62H101.338V59.1662H101.176C100.915 59.688 100.524 60.2008 100.002 60.7045C99.4804 61.2083 98.8102 61.6267 97.9915 61.9595C97.1729 62.2924 96.1923 62.4588 95.0498 62.4588ZM95.9269 59.2202C97.0424 59.2202 97.996 58.9998 98.7877 58.5589C99.5884 58.1181 100.196 57.5424 100.609 56.8317C101.032 56.112 101.244 55.3428 101.244 54.5241V51.8523C101.1 51.9962 100.821 52.1312 100.407 52.2571C100.002 52.3741 99.5389 52.4775 99.0171 52.5675C98.4953 52.6484 97.987 52.7249 97.4923 52.7969C96.9975 52.8598 96.5836 52.9138 96.2508 52.9588C95.4681 53.0578 94.7529 53.2242 94.1052 53.4581C93.4665 53.692 92.9537 54.0294 92.5668 54.4702C92.189 54.902 92.0001 55.4777 92.0001 56.1974C92.0001 57.196 92.3689 57.9517 93.1066 58.4645C93.8443 58.9683 94.7844 59.2202 95.9269 59.2202ZM116.587 34.3636V62H112.553V34.3636H116.587ZM129.947 62.4588C128.634 62.4588 127.446 62.2159 126.385 61.7301C125.323 61.2353 124.482 60.5201 123.862 59.5845C123.25 58.6489 122.944 57.5019 122.944 56.1435C122.944 54.974 123.169 54.0114 123.619 53.2557C124.068 52.5 124.676 51.9018 125.44 51.4609C126.205 51.0201 127.06 50.6873 128.004 50.4624C128.949 50.2375 129.911 50.0665 130.892 49.9496C132.134 49.8056 133.141 49.6887 133.915 49.5987C134.688 49.4998 135.251 49.3423 135.602 49.1264C135.952 48.9105 136.128 48.5597 136.128 48.0739V47.9794C136.128 46.8009 135.795 45.8878 135.129 45.2401C134.473 44.5923 133.492 44.2685 132.188 44.2685C130.829 44.2685 129.759 44.5698 128.976 45.1726C128.202 45.7663 127.667 46.4276 127.37 47.1562L123.578 46.2926C124.028 45.0331 124.685 44.0166 125.548 43.2429C126.421 42.4602 127.424 41.8935 128.558 41.5426C129.691 41.1828 130.883 41.0028 132.134 41.0028C132.961 41.0028 133.838 41.1018 134.765 41.2997C135.701 41.4886 136.573 41.8395 137.383 42.3523C138.201 42.8651 138.872 43.5982 139.393 44.5518C139.915 45.4964 140.176 46.7244 140.176 48.2358V62H136.236V59.1662H136.074C135.813 59.688 135.422 60.2008 134.9 60.7045C134.378 61.2083 133.708 61.6267 132.889 61.9595C132.071 62.2924 131.09 62.4588 129.947 62.4588ZM130.825 59.2202C131.94 59.2202 132.894 58.9998 133.685 58.5589C134.486 58.1181 135.093 57.5424 135.507 56.8317C135.93 56.112 136.141 55.3428 136.141 54.5241V51.8523C135.997 51.9962 135.719 52.1312 135.305 52.2571C134.9 52.3741 134.437 52.4775 133.915 52.5675C133.393 52.6484 132.885 52.7249 132.39 52.7969C131.895 52.8598 131.481 52.9138 131.148 52.9588C130.366 53.0578 129.651 53.2242 129.003 53.4581C128.364 53.692 127.851 54.0294 127.464 54.4702C127.087 54.902 126.898 55.4777 126.898 56.1974C126.898 57.196 127.267 57.9517 128.004 58.4645C128.742 58.9683 129.682 59.2202 130.825 59.2202ZM151.485 49.6932V62H147.45V41.2727H151.323V44.6463H151.58C152.056 43.5488 152.803 42.6671 153.82 42.0014C154.845 41.3357 156.136 41.0028 157.692 41.0028C159.105 41.0028 160.342 41.2997 161.403 41.8935C162.465 42.4782 163.288 43.3509 163.873 44.5114C164.458 45.6719 164.75 47.1068 164.75 48.8161V62H160.715V49.3018C160.715 47.7995 160.324 46.6255 159.541 45.7798C158.758 44.9252 157.683 44.4979 156.316 44.4979C155.38 44.4979 154.548 44.7003 153.82 45.1051C153.1 45.5099 152.529 46.1037 152.106 46.8864C151.692 47.66 151.485 48.5956 151.485 49.6932ZM180.792 62.4183C178.786 62.4183 177.059 61.964 175.61 61.0554C174.171 60.1378 173.064 58.8738 172.291 57.2635C171.517 55.6532 171.13 53.8089 171.13 51.7308C171.13 49.6257 171.526 47.768 172.318 46.1577C173.109 44.5384 174.225 43.2744 175.664 42.3658C177.104 41.4571 178.799 41.0028 180.752 41.0028C182.326 41.0028 183.729 41.2952 184.962 41.88C186.194 42.4557 187.188 43.2654 187.944 44.3089C188.709 45.3525 189.163 46.5715 189.307 47.9659H185.38C185.164 46.9943 184.669 46.1577 183.896 45.456C183.131 44.7543 182.105 44.4034 180.819 44.4034C179.694 44.4034 178.709 44.7003 177.864 45.294C177.027 45.8788 176.375 46.7154 175.907 47.804C175.439 48.8835 175.205 50.161 175.205 51.6364C175.205 53.1477 175.435 54.4522 175.894 55.5497C176.352 56.6473 177 57.4974 177.837 58.1001C178.682 58.7029 179.676 59.0043 180.819 59.0043C181.584 59.0043 182.276 58.8648 182.897 58.5859C183.527 58.2981 184.053 57.8887 184.476 57.358C184.908 56.8272 185.209 56.1884 185.38 55.4418H189.307C189.163 56.7822 188.727 57.9787 187.998 59.0312C187.269 60.0838 186.293 60.9115 185.07 61.5142C183.855 62.117 182.429 62.4183 180.792 62.4183ZM204.455 62.4183C202.413 62.4183 200.654 61.982 199.179 61.1094C197.712 60.2277 196.579 58.9908 195.778 57.3984C194.986 55.7971 194.591 53.9214 194.591 51.7713C194.591 49.6482 194.986 47.777 195.778 46.1577C196.579 44.5384 197.694 43.2744 199.125 42.3658C200.564 41.4571 202.246 41.0028 204.172 41.0028C205.341 41.0028 206.475 41.1963 207.572 41.5831C208.67 41.9699 209.655 42.5772 210.527 43.4048C211.4 44.2325 212.088 45.3075 212.592 46.63C213.096 47.9434 213.348 49.5402 213.348 51.4205V52.8509H196.871V49.8281H209.394C209.394 48.7666 209.178 47.8265 208.746 47.0078C208.314 46.1802 207.707 45.5279 206.924 45.0511C206.151 44.5743 205.242 44.3359 204.199 44.3359C203.065 44.3359 202.075 44.6148 201.23 45.1726C200.393 45.7214 199.745 46.4411 199.287 47.3317C198.837 48.2133 198.612 49.1714 198.612 50.206V52.5675C198.612 53.9529 198.855 55.1314 199.341 56.103C199.835 57.0746 200.524 57.8168 201.405 58.3295C202.287 58.8333 203.317 59.0852 204.495 59.0852C205.26 59.0852 205.957 58.9773 206.587 58.7614C207.217 58.5365 207.761 58.2036 208.22 57.7628C208.679 57.322 209.03 56.7777 209.272 56.13L213.091 56.8182C212.785 57.9427 212.237 58.9278 211.445 59.7734C210.662 60.6101 209.677 61.2623 208.49 61.7301C207.311 62.1889 205.966 62.4183 204.455 62.4183Z" fill="#001C18"/>
</svg>
