<svg width="456" height="480" viewBox="0 0 456 480" fill="none" xmlns="http://www.w3.org/2000/svg">
<path fill-rule="evenodd" clip-rule="evenodd" d="M211.347 1.15411C197.768 3.73211 181.693 10.5721 171.498 18.1101C165.539 22.5161 154.472 33.8881 150.529 39.6581C139.315 56.0641 135.448 68.3401 134.78 89.6581C133.471 131.415 147.236 173.704 172.055 204.174L176.481 209.609L174.943 216.383C174.097 220.109 173.17 223.945 172.884 224.908C172.426 226.447 170.935 226.658 160.537 226.658C120.997 226.658 89.4421 236.532 61.1911 257.744C30.6431 280.68 10.0341 313.627 2.27608 351.93C0.117079 362.587 0.00108031 365.372 8.03123e-05 406.658C-0.00191969 449.846 0.0150788 450.199 2.31908 455.905C5.55808 463.927 13.0671 471.828 21.3051 475.884L27.9561 479.158H227.977H427.998L434.103 476.337C441.825 472.768 449.527 465.033 453.2 457.158L455.998 451.158L455.974 405.158C455.951 361.319 455.845 358.679 453.718 348.97C447.49 320.549 434.383 295.469 415.003 274.889C384.807 242.824 345.041 226.658 296.363 226.658H284.575L283.582 222.908C280.241 210.297 280.21 210.713 284.905 205.197C300.955 186.344 312.794 160.467 319.008 130.658C322.176 115.459 323.541 86.7891 321.587 76.4671C317.744 56.1601 309.037 40.0621 294.371 26.1541C281.751 14.1851 268.869 7.03411 251.906 2.58111C241.456 -0.161893 221.906 -0.849893 211.347 1.15411ZM248.998 18.1801C257.885 20.5531 272.149 27.8401 279.223 33.6211C297.328 48.4171 306.501 68.2431 306.495 92.5681C306.485 133.834 290.598 175.818 265.733 200.289C247.216 218.513 225.298 222.665 205.998 211.606C181.948 197.825 162.016 164.973 153.483 125.052C152.062 118.405 151.182 109.739 150.802 98.6461C150.297 83.9461 150.468 81.2131 152.359 73.7361C159.944 43.7411 185.035 21.4481 216.998 16.3051C222.683 15.3901 243.011 16.5811 248.998 18.1801ZM193.53 223.681C197.943 226.823 208.385 231.423 214.958 233.119C229.927 236.983 250.371 233.005 263.466 223.681C265.028 222.568 266.534 221.658 266.812 221.658C267.089 221.658 267.875 224.785 268.558 228.608L269.8 235.557L252.998 270.858C243.757 290.273 235.114 307.17 233.791 308.408C231.357 310.686 229.009 311.175 226.017 310.027C225.112 309.68 216.024 292.704 205.816 272.295L187.261 235.194L188.47 228.426C189.135 224.704 189.907 221.658 190.184 221.658C190.462 221.658 191.968 222.568 193.53 223.681ZM179.008 254.678C182.597 261.839 190.733 278.602 197.089 291.928C209.132 317.179 212.034 321.527 218.998 324.758C227.467 328.687 238.66 326.451 245.169 319.53C247.125 317.45 255.159 302.024 266.136 279.267L283.933 242.375L302.465 242.971C329.659 243.846 346.912 248.036 367.37 258.734C380.776 265.745 391.083 273.518 402.294 285.072C421.16 304.518 432.671 326.297 438.708 353.97C440.805 363.58 440.933 366.545 440.964 406.234L440.998 448.309L437.983 453.189C435.786 456.744 433.515 458.828 429.618 460.864L424.27 463.658H228.498H32.7261L27.3781 460.864C23.4811 458.828 21.2101 456.744 19.0131 453.189L15.9981 448.309L16.0311 405.734C16.0621 365.521 16.1871 362.592 18.2871 352.97C31.6451 291.762 80.3301 248.138 141.34 242.708C146.102 242.284 155.057 241.874 161.241 241.797L172.484 241.658L179.008 254.678Z" fill="currentColor"/>
</svg>
