<svg width="24" height="24" viewBox="0 0 24 24" fill="none" xmlns="http://www.w3.org/2000/svg">
<path d="M12.6914 12.4545H8.25959V11.517H12.6914C13.1005 11.517 13.4386 11.446 13.7056 11.304C13.9727 11.1591 14.1715 10.9631 14.3022 10.7159C14.4329 10.4659 14.4982 10.1818 14.4982 9.86364C14.4982 9.54545 14.4329 9.26278 14.3022 9.01562C14.1715 8.76562 13.9727 8.5696 13.7056 8.42756C13.4386 8.28267 13.1005 8.21023 12.6914 8.21023H10.6971V16H9.64027V7.27273H12.6914C13.3391 7.27273 13.8732 7.39062 14.2937 7.62642C14.7141 7.86222 15.0266 8.17614 15.2312 8.56818C15.4357 8.96023 15.538 9.39205 15.538 9.86364C15.538 10.3352 15.4357 10.767 15.2312 11.1591C15.0266 11.5511 14.7141 11.8651 14.2937 12.1009C13.8732 12.3366 13.3391 12.4545 12.6914 12.4545ZM12.6232 13.2727V14.2102H8.25959V13.2727H12.6232Z" fill="#059669"/>
<path d="M8.25959 12.4545H7.25959V13.4545H8.25959V12.4545ZM8.25959 11.517V10.517H7.25959V11.517H8.25959ZM13.7056 11.304L14.1752 12.1869L14.1825 12.1829L13.7056 11.304ZM14.3022 10.7159L15.1862 11.1833L15.1884 11.1792L14.3022 10.7159ZM14.3022 9.01562L13.416 9.47888L13.4182 9.48305L14.3022 9.01562ZM13.7056 8.42756L13.2287 9.30655L13.236 9.31043L13.7056 8.42756ZM10.6971 8.21023V7.21023H9.69709V8.21023H10.6971ZM10.6971 16V17H11.6971V16H10.6971ZM9.64027 16H8.64027V17H9.64027V16ZM9.64027 7.27273V6.27273H8.64027V7.27273H9.64027ZM14.2937 12.1009L13.8045 11.2286L13.8045 11.2286L14.2937 12.1009ZM12.6232 13.2727H13.6232V12.2727H12.6232V13.2727ZM12.6232 14.2102V15.2102H13.6232V14.2102H12.6232ZM8.25959 14.2102H7.25959V15.2102H8.25959V14.2102ZM8.25959 13.2727V12.2727H7.25959V13.2727H8.25959ZM12.6914 12.4545V11.4545H8.25959V12.4545V13.4545H12.6914V12.4545ZM8.25959 12.4545H9.25959V11.517H8.25959H7.25959V12.4545H8.25959ZM8.25959 11.517V12.517H12.6914V11.517V10.517H8.25959V11.517ZM12.6914 11.517V12.517C13.2091 12.517 13.7217 12.4281 14.1752 12.1868L13.7056 11.304L13.236 10.4211C13.1555 10.4639 12.9919 10.517 12.6914 10.517V11.517ZM13.7056 11.304L14.1825 12.1829C14.6072 11.9525 14.9554 11.62 15.1862 11.1833L14.3022 10.7159L13.4182 10.2485C13.3877 10.3062 13.3381 10.3656 13.2287 10.425L13.7056 11.304ZM14.3022 10.7159L15.1884 11.1792C15.403 10.7688 15.4982 10.3223 15.4982 9.86364H14.4982H13.4982C13.4982 10.0414 13.4628 10.1631 13.416 10.2527L14.3022 10.7159ZM14.4982 9.86364H15.4982C15.4982 9.40524 15.403 8.95822 15.1862 8.5482L14.3022 9.01562L13.4182 9.48305C13.4627 9.56734 13.4982 9.68566 13.4982 9.86364H14.4982ZM14.3022 9.01562L15.1884 8.55237C14.9575 8.11059 14.6067 7.77421 14.1752 7.54468L13.7056 8.42756L13.236 9.31043C13.3386 9.36499 13.3855 9.42066 13.416 9.47888L14.3022 9.01562ZM13.7056 8.42756L14.1825 7.54859C13.7271 7.30152 13.2117 7.21023 12.6914 7.21023V8.21023V9.21023C12.9893 9.21023 13.15 9.26382 13.2287 9.30652L13.7056 8.42756ZM12.6914 8.21023V7.21023H10.6971V8.21023V9.21023H12.6914V8.21023ZM10.6971 8.21023H9.69709V16H10.6971H11.6971V8.21023H10.6971ZM10.6971 16V15H9.64027V16V17H10.6971V16ZM9.64027 16H10.6403V7.27273H9.64027H8.64027V16H9.64027ZM9.64027 7.27273V8.27273H12.6914V7.27273V6.27273H9.64027V7.27273ZM12.6914 7.27273V8.27273C13.2245 8.27273 13.5761 8.37053 13.8045 8.49862L14.2937 7.62642L14.7828 6.75422C14.1703 6.41072 13.4538 6.27273 12.6914 6.27273V7.27273ZM14.2937 7.62642L13.8045 8.49862C14.0714 8.64831 14.238 8.82646 14.3446 9.03075L15.2312 8.56818L16.1178 8.10562C15.8153 7.52582 15.3568 7.07612 14.7828 6.75422L14.2937 7.62642ZM15.2312 8.56818L14.3446 9.03075C14.4697 9.27054 14.538 9.54212 14.538 9.86364H15.538H16.538C16.538 9.24197 16.4017 8.64991 16.1178 8.10562L15.2312 8.56818ZM15.538 9.86364H14.538C14.538 10.1852 14.4697 10.4567 14.3446 10.6965L15.2312 11.1591L16.1178 11.6217C16.4017 11.0774 16.538 10.4853 16.538 9.86364H15.538ZM15.2312 11.1591L14.3446 10.6965C14.238 10.9008 14.0714 11.079 13.8045 11.2286L14.2937 12.1009L14.7828 12.9731C15.3568 12.6512 15.8153 12.2015 16.1178 11.6217L15.2312 11.1591ZM14.2937 12.1009L13.8045 11.2286C13.5761 11.3567 13.2245 11.4545 12.6914 11.4545V12.4545V13.4545C13.4538 13.4545 14.1703 13.3166 14.7828 12.9731L14.2937 12.1009ZM12.6232 13.2727H11.6232V14.2102H12.6232H13.6232V13.2727H12.6232ZM12.6232 14.2102V13.2102H8.25959V14.2102V15.2102H12.6232V14.2102ZM8.25959 14.2102H9.25959V13.2727H8.25959H7.25959V14.2102H8.25959ZM8.25959 13.2727V14.2727H12.6232V13.2727V12.2727H8.25959V13.2727Z" fill="currentColor"/>
<path d="M12 22C17.5228 22 22 17.5228 22 12C22 6.47715 17.5228 2 12 2C6.47715 2 2 6.47715 2 12C2 17.5228 6.47715 22 12 22Z" stroke="currentColor" stroke-width="2"/>
</svg>
