<svg width="24" height="24" viewBox="0 0 24 24" fill="none" xmlns="http://www.w3.org/2000/svg">
<path d="M11.6511 17.0909V6.18182H12.35V17.0909H11.6511ZM14.0034 9.45455C13.9522 9.02273 13.7449 8.6875 13.3812 8.44886C13.0176 8.21023 12.5716 8.09091 12.0431 8.09091C11.6568 8.09091 11.3187 8.15341 11.0289 8.27841C10.742 8.40341 10.5176 8.57528 10.3556 8.79403C10.1966 9.01278 10.117 9.26136 10.117 9.53977C10.117 9.77273 10.1724 9.97301 10.2832 10.1406C10.3968 10.3054 10.5417 10.4432 10.7179 10.554C10.894 10.6619 11.0787 10.7514 11.2718 10.8224C11.465 10.8906 11.6426 10.946 11.8045 10.9886L12.6909 11.2273C12.9181 11.2869 13.171 11.3693 13.4494 11.4744C13.7306 11.5795 13.9991 11.723 14.2548 11.9048C14.5133 12.0838 14.7264 12.3139 14.894 12.5952C15.0616 12.8764 15.1454 13.2216 15.1454 13.6307C15.1454 14.1023 15.0218 14.5284 14.7747 14.9091C14.5304 15.2898 14.1724 15.5923 13.7008 15.8168C13.2321 16.0412 12.6625 16.1534 11.992 16.1534C11.367 16.1534 10.8258 16.0526 10.3684 15.8509C9.91388 15.6491 9.55593 15.3679 9.29457 15.0071C9.03604 14.6463 8.88974 14.2273 8.85565 13.75H9.94656C9.97496 14.0795 10.0858 14.3523 10.2789 14.5682C10.475 14.7812 10.7221 14.9403 11.0204 15.0455C11.3216 15.1477 11.6454 15.1989 11.992 15.1989C12.3954 15.1989 12.7576 15.1335 13.0787 15.0028C13.3997 14.8693 13.6539 14.6847 13.8414 14.4489C14.0289 14.2102 14.1227 13.9318 14.1227 13.6136C14.1227 13.3239 14.0417 13.0881 13.8798 12.9062C13.7179 12.7244 13.5048 12.5767 13.2406 12.4631C12.9764 12.3494 12.6909 12.25 12.3841 12.1648L11.3102 11.858C10.6284 11.6619 10.0886 11.3821 9.69087 11.0185C9.29315 10.6548 9.09428 10.179 9.09428 9.59091C9.09428 9.10227 9.22638 8.67614 9.49059 8.3125C9.75763 7.94602 10.1156 7.66193 10.5645 7.46023C11.0162 7.25568 11.5204 7.15341 12.0772 7.15341C12.6397 7.15341 13.1397 7.25426 13.5772 7.45597C14.0147 7.65483 14.3613 7.92756 14.617 8.27415C14.8755 8.62074 15.0119 9.0142 15.0261 9.45455H14.0034Z" fill="currentColor"/>
<path d="M11.6511 17.0909H10.6511V18.0909H11.6511V17.0909ZM11.6511 6.18182V5.18182H10.6511V6.18182H11.6511ZM12.35 6.18182H13.35V5.18182H12.35V6.18182ZM12.35 17.0909V18.0909H13.35V17.0909H12.35ZM14.0034 9.45455L13.0103 9.57214L13.1148 10.4545H14.0034V9.45455ZM13.3812 8.44886L12.8326 9.28491L12.8326 9.28491L13.3812 8.44886ZM11.0289 8.27841L10.6328 7.36019L10.6296 7.36163L11.0289 8.27841ZM10.3556 8.79403L9.55188 8.19903L9.54691 8.20586L10.3556 8.79403ZM10.2832 10.1406L9.44898 10.6921L9.45441 10.7003L9.45999 10.7084L10.2832 10.1406ZM10.7179 10.554L10.1854 11.4005L10.1953 11.4066L10.7179 10.554ZM11.2718 10.8224L10.9267 11.7611L10.939 11.7654L11.2718 10.8224ZM11.8045 10.9886L12.0645 10.023L12.059 10.0216L11.8045 10.9886ZM12.6909 11.2273L12.4309 12.1929L12.437 12.1945L12.6909 11.2273ZM13.4494 11.4744L13.0962 12.41L13.0993 12.4111L13.4494 11.4744ZM14.2548 11.9048L13.6752 12.7198L13.6856 12.727L14.2548 11.9048ZM14.894 12.5952L15.753 12.0832L15.753 12.0832L14.894 12.5952ZM14.7747 14.9091L13.9359 14.3645L13.9331 14.369L14.7747 14.9091ZM13.7008 15.8168L13.2711 14.9138L13.269 14.9148L13.7008 15.8168ZM10.3684 15.8509L9.96282 16.7649L9.96493 16.7658L10.3684 15.8509ZM9.29457 15.0071L8.48169 15.5896L8.48473 15.5938L9.29457 15.0071ZM8.85565 13.75V12.75H7.78167L7.85819 13.8212L8.85565 13.75ZM9.94656 13.75L10.9429 13.6641L10.8641 12.75H9.94656V13.75ZM10.2789 14.5682L9.53363 15.235L9.54301 15.2452L10.2789 14.5682ZM11.0204 15.0455L10.688 15.9887L10.6988 15.9923L11.0204 15.0455ZM13.0787 15.0028L13.4557 15.9291L13.4627 15.9262L13.0787 15.0028ZM13.8414 14.4489L14.6242 15.0713L14.6278 15.0667L13.8414 14.4489ZM13.8798 12.9062L14.6266 12.2412L14.6266 12.2412L13.8798 12.9062ZM13.2406 12.4631L12.8455 13.3817L12.8455 13.3817L13.2406 12.4631ZM12.3841 12.1648L12.1093 13.1263L12.1164 13.1283L12.3841 12.1648ZM11.3102 11.858L11.0339 12.819L11.0355 12.8195L11.3102 11.858ZM9.69087 11.0185L9.0161 11.7565L9.0161 11.7565L9.69087 11.0185ZM9.49059 8.3125L8.68239 7.72358L8.68158 7.7247L9.49059 8.3125ZM10.5645 7.46023L10.9743 8.37237L10.977 8.37118L10.5645 7.46023ZM13.5772 7.45597L13.1585 8.36411L13.1634 8.36633L13.5772 7.45597ZM14.617 8.27415L13.8123 8.8678L13.8154 8.87204L14.617 8.27415ZM15.0261 9.45455V10.4545H16.0589L16.0256 9.4223L15.0261 9.45455ZM11.6511 17.0909H12.6511V6.18182H11.6511H10.6511V17.0909H11.6511ZM11.6511 6.18182V7.18182H12.35V6.18182V5.18182H11.6511V6.18182ZM12.35 6.18182H11.35V17.0909H12.35H13.35V6.18182H12.35ZM12.35 17.0909V16.0909H11.6511V17.0909V18.0909H12.35V17.0909ZM14.0034 9.45455L14.9964 9.33695C14.9105 8.61167 14.5404 8.01349 13.9299 7.61282L13.3812 8.44886L12.8326 9.28491C12.9493 9.36151 12.9939 9.43378 13.0103 9.57214L14.0034 9.45455ZM13.3812 8.44886L13.9299 7.61282C13.3712 7.24616 12.7242 7.09091 12.0431 7.09091V8.09091V9.09091C12.4189 9.09091 12.664 9.17429 12.8326 9.28491L13.3812 8.44886ZM12.0431 8.09091V7.09091C11.5503 7.09091 11.0724 7.17058 10.6329 7.3602L11.0289 8.27841L11.425 9.19662C11.565 9.13624 11.7632 9.09091 12.0431 9.09091V8.09091ZM11.0289 8.27841L10.6296 7.36163C10.2064 7.54597 9.83288 7.81949 9.5519 8.19906L10.3556 8.79403L11.1594 9.38901C11.2023 9.33108 11.2776 9.26084 11.4283 9.19519L11.0289 8.27841ZM10.3556 8.79403L9.54691 8.20586C9.25967 8.60082 9.11701 9.05665 9.11701 9.53977H10.117H11.117C11.117 9.46608 11.1334 9.42475 11.1644 9.38221L10.3556 8.79403ZM10.117 9.53977H9.11701C9.11701 9.93678 9.21365 10.336 9.44898 10.6921L10.2832 10.1406L11.1174 9.58919C11.1219 9.59592 11.1231 9.6006 11.1224 9.59812C11.1214 9.59456 11.117 9.57688 11.117 9.53977H10.117ZM10.2832 10.1406L9.45999 10.7084C9.6537 10.9892 9.8991 11.2203 10.1854 11.4004L10.7179 10.554L11.2503 9.70752C11.1844 9.66603 11.14 9.62157 11.1064 9.57289L10.2832 10.1406ZM10.7179 10.554L10.1953 11.4066C10.4274 11.5488 10.6715 11.6672 10.9268 11.761L11.2718 10.8224L11.6169 9.88386C11.4858 9.83567 11.3606 9.77502 11.2404 9.70138L10.7179 10.554ZM11.2718 10.8224L10.939 11.7654C11.1525 11.8408 11.3566 11.9048 11.55 11.9557L11.8045 10.9886L12.059 10.0216C11.9285 9.98723 11.7775 9.94046 11.6047 9.87945L11.2718 10.8224ZM11.8045 10.9886L11.5445 11.9543L12.4309 12.1929L12.6909 11.2273L12.9508 10.2617L12.0645 10.023L11.8045 10.9886ZM12.6909 11.2273L12.437 12.1945C12.6232 12.2434 12.8422 12.3141 13.0962 12.41L13.4494 11.4744L13.8026 10.5389C13.4998 10.4246 13.2131 10.3305 12.9448 10.26L12.6909 11.2273ZM13.4494 11.4744L13.0993 12.4111C13.2955 12.4845 13.4873 12.5861 13.6753 12.7198L14.2548 11.9048L14.8343 11.0899C14.511 10.8599 14.1658 10.6746 13.7995 10.5377L13.4494 11.4744ZM14.2548 11.9048L13.6856 12.727C13.8215 12.8211 13.9376 12.9436 14.035 13.1071L14.894 12.5952L15.753 12.0832C15.5152 11.6842 15.2051 11.3465 14.824 11.0826L14.2548 11.9048ZM14.894 12.5952L14.035 13.1071C14.0899 13.1993 14.1454 13.3573 14.1454 13.6307H15.1454H16.1454C16.1454 13.0859 16.0333 12.5536 15.753 12.0832L14.894 12.5952ZM15.1454 13.6307H14.1454C14.1454 13.9169 14.0736 14.1525 13.936 14.3645L14.7747 14.9091L15.6134 15.4536C15.9701 14.9043 16.1454 14.2876 16.1454 13.6307H15.1454ZM14.7747 14.9091L13.9331 14.369C13.8043 14.5696 13.6008 14.7569 13.2711 14.9138L13.7008 15.8168L14.1305 16.7197C14.744 16.4278 15.2564 16.0099 15.6163 15.4492L14.7747 14.9091ZM13.7008 15.8168L13.269 14.9148C12.9682 15.0588 12.5548 15.1534 11.992 15.1534V16.1534V17.1534C12.7701 17.1534 13.4959 17.0236 14.1327 16.7187L13.7008 15.8168ZM11.992 16.1534V15.1534C11.4723 15.1534 11.0746 15.0693 10.7719 14.9359L10.3684 15.8509L9.96493 16.7658C10.577 17.0358 11.2618 17.1534 11.992 17.1534V16.1534ZM10.3684 15.8509L10.774 14.9368C10.4616 14.7982 10.2506 14.6223 10.1044 14.4204L9.29457 15.0071L8.48473 15.5938C8.86125 16.1135 9.36619 16.5001 9.96282 16.7649L10.3684 15.8509ZM9.29457 15.0071L10.1074 14.4247C9.96485 14.2257 9.87511 13.9868 9.85311 13.6788L8.85565 13.75L7.85819 13.8212C7.90437 14.4678 8.10724 15.0669 8.4817 15.5896L9.29457 15.0071ZM8.85565 13.75V14.75H9.94656V13.75V12.75H8.85565V13.75ZM9.94656 13.75L8.95025 13.8359C8.9945 14.3492 9.17616 14.8354 9.5337 15.235L10.2789 14.5682L11.0242 13.9014C10.9954 13.8692 10.9554 13.8099 10.9429 13.6641L9.94656 13.75ZM10.2789 14.5682L9.54301 15.2452C9.85978 15.5896 10.2501 15.8343 10.6881 15.9886L11.0204 15.0455L11.3528 14.1023C11.1942 14.0464 11.0901 13.9729 11.0149 13.8911L10.2789 14.5682ZM11.0204 15.0455L10.6988 15.9923C11.1124 16.1328 11.5458 16.1989 11.992 16.1989V15.1989V14.1989C11.745 14.1989 11.5307 14.1627 11.342 14.0986L11.0204 15.0455ZM11.992 15.1989V16.1989C12.5038 16.1989 12.997 16.1158 13.4557 15.929L13.0787 15.0028L12.7016 14.0766C12.5183 14.1513 12.2871 14.1989 11.992 14.1989V15.1989ZM13.0787 15.0028L13.4627 15.9262C13.9156 15.7378 14.3161 15.4586 14.6241 15.0713L13.8414 14.4489L13.0587 13.8265C12.9918 13.9107 12.8837 14.0009 12.6946 14.0795L13.0787 15.0028ZM13.8414 14.4489L14.6278 15.0667C14.9607 14.6429 15.1227 14.1442 15.1227 13.6136H14.1227H13.1227C13.1227 13.7194 13.0971 13.7776 13.0551 13.831L13.8414 14.4489ZM14.1227 13.6136H15.1227C15.1227 13.1278 14.9816 12.6398 14.6266 12.2412L13.8798 12.9062L13.133 13.5713C13.1293 13.5672 13.1252 13.5617 13.1216 13.5555C13.1181 13.5494 13.1165 13.5451 13.1162 13.5442C13.1155 13.5422 13.1227 13.5617 13.1227 13.6136H14.1227ZM13.8798 12.9062L14.6266 12.2412C14.3513 11.9321 14.0101 11.7055 13.6357 11.5444L13.2406 12.4631L12.8455 13.3817C12.9994 13.4479 13.0844 13.5168 13.133 13.5713L13.8798 12.9062ZM13.2406 12.4631L13.6357 11.5444C13.3259 11.4112 12.9974 11.2973 12.6517 11.2013L12.3841 12.1648L12.1164 13.1283C12.3843 13.2027 12.6268 13.2877 12.8455 13.3817L13.2406 12.4631ZM12.3841 12.1648L12.6588 11.2032L11.5849 10.8964L11.3102 11.858L11.0355 12.8195L12.1093 13.1263L12.3841 12.1648ZM11.3102 11.858L11.5865 10.8969C11.0079 10.7305 10.6194 10.5124 10.3656 10.2804L9.69087 11.0185L9.0161 11.7565C9.55783 12.2518 10.2488 12.5933 11.0339 12.819L11.3102 11.858ZM9.69087 11.0185L10.3656 10.2804C10.1953 10.1247 10.0943 9.92684 10.0943 9.59091H9.09428H8.09428C8.09428 10.4311 8.39095 11.1849 9.0161 11.7565L9.69087 11.0185ZM9.09428 9.59091H10.0943C10.0943 9.29405 10.1705 9.07802 10.2996 8.9003L9.49059 8.3125L8.68158 7.7247C8.2823 8.27425 8.09428 8.9105 8.09428 9.59091H9.09428ZM9.49059 8.3125L10.2988 8.90142C10.4548 8.68732 10.6702 8.50905 10.9743 8.37236L10.5645 7.46023L10.1546 6.54809C9.56102 6.81481 9.06048 7.20472 8.6824 7.72358L9.49059 8.3125ZM10.5645 7.46023L10.977 8.37118C11.284 8.23215 11.6451 8.15341 12.0772 8.15341V7.15341V6.15341C11.3957 6.15341 10.7483 6.27921 10.1519 6.54927L10.5645 7.46023ZM12.0772 7.15341V8.15341C12.5192 8.15341 12.8725 8.23224 13.1586 8.3641L13.5772 7.45597L13.9959 6.54783C13.4069 6.27628 12.7602 6.15341 12.0772 6.15341V7.15341ZM13.5772 7.45597L13.1634 8.36633C13.4641 8.503 13.6691 8.67371 13.8123 8.8678L14.617 8.27415L15.4217 7.6805C15.0536 7.18141 14.5654 6.80666 13.991 6.5456L13.5772 7.45597ZM14.617 8.27415L13.8154 8.87204C13.9493 9.05147 14.0189 9.24666 14.0266 9.48679L15.0261 9.45455L16.0256 9.4223C16.0049 8.78174 15.8018 8.19001 15.4186 7.67625L14.617 8.27415ZM15.0261 9.45455V8.45455H14.0034V9.45455V10.4545H15.0261V9.45455Z" fill="currentColor"/>
<path d="M12 22C17.5228 22 22 17.5228 22 12C22 6.47715 17.5228 2 12 2C6.47715 2 2 6.47715 2 12C2 17.5228 6.47715 22 12 22Z" stroke="currentColor" stroke-width="2"/>
</svg>
