<svg width="444" height="396" viewBox="0 0 444 396" fill="none" xmlns="http://www.w3.org/2000/svg">
<path fill-rule="evenodd" clip-rule="evenodd" d="M38.8615 1.86126C29.6715 4.83526 23.1985 8.69126 16.0135 15.4683C8.68354 22.3833 4.10255 29.7883 1.43455 39.0343C-0.0124537 44.0473 -0.144454 59.2473 0.0955457 193.034L0.361545 341.473L2.67955 347.973C11.1065 371.609 30.8115 389.38 53.8615 394.133C59.1395 395.221 90.9235 395.473 222.862 395.473C405.524 395.473 389.825 396.126 406.862 387.818C413.712 384.477 417.022 382.003 423.911 375.073C433.555 365.372 438.468 357.077 441.833 344.811C443.879 337.354 443.906 335.775 443.636 240.856L443.362 144.473L441.138 137.973C437.711 127.953 432.122 119.28 423.362 110.383C416.974 103.896 413.649 101.423 406.862 98.1103C402.187 95.8283 395.325 93.2243 391.612 92.3233L384.862 90.6863V68.7243C384.862 44.2453 384.016 38.8713 378.528 28.4793C374.285 20.4453 363.897 10.0133 356.362 6.21926C343.073 -0.471737 354.749 -0.0327381 191.93 0.0272619C53.2455 0.0772619 44.0305 0.188262 38.8615 1.86126ZM346.743 19.3063C353.969 23.1113 361.397 30.7463 364.674 37.7373C367.315 43.3733 367.367 43.8773 367.663 66.7353L367.965 89.9973L205.663 89.7353L43.3615 89.4733L37.6595 87.1693C20.6445 80.2943 11.0955 60.4413 16.2595 42.6773C19.4195 31.8043 30.8495 20.1243 41.3615 17.0253C43.0525 16.5263 109.154 16.2133 192.862 16.3073L341.362 16.4733L346.743 19.3063ZM30.0545 101.42C34.0735 103.273 40.0315 105.281 43.2955 105.881C47.4305 106.642 99.8805 106.973 216.336 106.973C363.161 106.973 384.155 107.159 389.32 108.504C406.826 113.064 421.022 127.05 426.267 144.905C427.491 149.072 427.862 154.948 427.862 170.155V189.973L365.112 189.988C313.32 190 301.269 190.26 296.102 191.479C280.852 195.074 266.723 206.33 259.844 220.365C252.33 235.694 252.081 250.513 259.089 265.2C265.603 278.852 275.894 288.61 289.626 294.157L295.362 296.473L361.362 296.973L427.362 297.473L427.306 316.973C427.257 334.011 426.977 337.362 425.091 343.515C419.821 360.696 404.767 374.992 387.834 378.894C384.865 379.578 328.735 379.932 220.794 379.949C74.8575 379.97 57.6685 379.81 52.7935 378.378C34.9385 373.133 20.9525 358.937 16.3925 341.431C15.0585 336.308 14.8615 319.889 14.8615 213.679V91.8053L18.8045 94.9273C20.9725 96.6453 26.0345 99.5673 30.0545 101.42ZM427.862 242.994V280.015L362.59 279.744L297.318 279.473L290.668 276.199C276.584 269.264 268.899 255.995 270.172 240.81C271.486 225.145 282.855 211.368 297.791 207.34C301.171 206.429 318.715 206.09 365.112 206.04L427.862 205.973V242.994ZM302.61 222.343C286.56 228.315 282.628 247.658 295.217 258.712C299.834 262.766 304.838 264.287 311.878 263.778C333.155 262.239 338.647 233.616 319.544 223.82C314.483 221.225 307.297 220.598 302.61 222.343ZM313.862 238.973C316.269 241.38 316.363 242.813 314.305 245.75C310.709 250.885 302.544 246.57 304.771 240.713C306.333 236.603 310.663 235.774 313.862 238.973Z" fill="currentColor"/>
</svg>
